<svg xmlns="http://www.w3.org/2000/svg" viewBox="0 0 1650.1 455.56"><defs><style>.cls-1{fill:#4e7cd9;}.cls-2{font-size:107.81px;fill:#231f20;font-family:OpenSans-Regular, Open Sans;letter-spacing:0.14em;}</style></defs><title>Asset 4</title><g id="Layer_2" data-name="Layer 2"><g id="Layer_1-2" data-name="Layer 1"><path class="cls-1" d="M317,274.91q-37.9,0-75.8,0c-1.9,0-2.46-.61-2.45-2.44q.07-19.68,0-39.37c0-2.1.7-2.72,2.78-2.72,41.4.06,82.8,0,124.21.11,10.39,0,18.09,5.52,23.64,14,5.2,7.91,7.23,16.8,6.89,26.22-.14,3.72-.78,4.18-4.53,4.18H317Z"/><path class="cls-1" d="M303.5,186c-.61,2.1-1.09,4.05-1.76,5.94a1.77,1.77,0,0,1-1.46.76c-4.22-.33-8.43-.74-12.64-1.15-5.91-.59-11.82-1.2-17.73-1.78-1.25-.13-1.54-.69-1.56-2,0-2.54,1-4.13,3-5.66,6.28-4.74,12.36-9.74,18.5-14.66a4.44,4.44,0,0,0,.77-1.27,5.23,5.23,0,0,0-1.31-.49c-5.42-.57-10.84-1.15-16.26-1.63-1.32-.12-1.51-.66-1.1-1.74.57-1.5,1.11-3,1.72-4.52a1.3,1.3,0,0,1,.81-.55,3.78,3.78,0,0,1,1.21,0c4.43.47,8.85,1,13.28,1.42,4.62.46,9.24.86,13.86,1.26,2.3.19,2.46.35,2.15,2.62a7.43,7.43,0,0,0-.09.81,4.72,4.72,0,0,1-2.12,3.79c-6.53,5-13,10.12-19.42,15.22-.27.22-.6.78-.5,1a1.48,1.48,0,0,0,1,.64c3.49.35,7,.63,10.48,1C297.36,185.23,300.35,185.6,303.5,186Z"/><path class="cls-1" d="M211.73,228.54c12.77-1,23.79,11.11,23.88,22.83.09,12.75-11.42,23.69-24,23.53-13.28-.18-23.84-10.85-23.78-23.46C187.92,239.52,198.25,227.89,211.73,228.54Z"/><path class="cls-1" d="M251.58,196.68a14.48,14.48,0,0,0,2,0c4.35-.69,8.69-1.38,13-2.13.78-.14,1,.14,1,.79,0,1.26,0,2.53-.07,3.78a1.34,1.34,0,0,1-.92.84c-5.73.92-11.47,1.77-17.2,2.66-2,.3-4,.6-6,1-1.07.21-1.42-.14-1.61-1.17a5.4,5.4,0,0,1,1.29-4.58c3.7-4.75,7.28-9.59,10.9-14.41a3.44,3.44,0,0,0,.33-.81c-.36-.12-.74-.38-1.08-.33-2.89.4-5.77.88-8.67,1.31-1.28.19-2.58.35-3.87.47-.8.07-1.19-.27-1-1.15a9.12,9.12,0,0,0,.24-1.73c.14-2.38.13-2.39,2.5-2.77,1.95-.32,3.91-.6,5.86-.9,4.89-.74,9.78-1.46,14.66-2.23.76-.12,1.08.11,1.2.85a6.33,6.33,0,0,1-1.31,5.37c-3.74,4.6-7.24,9.39-10.84,14.11A9,9,0,0,0,251.58,196.68Z"/><path class="cls-1" d="M228.88,196.66H225.3c-1.31,0-2.62.05-3.92,0-.5,0-1.4-.38-1.39-.55,0-.85,0-1.89,1.11-2.21a4.79,4.79,0,0,1,1.2-.09c3.93,0,7.85,0,11.77,0,.55,0,1.58.35,1.58.52a3.3,3.3,0,0,1-.56,2.17c-2.51,2.33-5.15,4.5-7.72,6.75a16.34,16.34,0,0,0-1.41,1.6c.88.11,1.39.23,1.91.24,2.25,0,4.51,0,6.76,0,.45,0,1.25.46,1.25.72,0,.82.21,1.95-1.09,2.11a21.91,21.91,0,0,1-2.43.06c-3.84,0-7.67,0-11.5,0-.52,0-1.48-.4-1.48-.62a2.9,2.9,0,0,1,.59-2c1.88-1.8,3.91-3.45,5.87-5.17,1.1-1,2.17-2,3.25-2.95Z"/><path class="cls-1" d="M573.23,211.2a20.63,20.63,0,0,1,4,28.33l-15.53,21.11A19.5,19.5,0,0,1,534,264.53L315.07,95.41c-8.7-6.73-22.95-6.73-31.65,0L47.13,277.94a19.5,19.5,0,0,1-27.68-3.89L3.92,252.94a20.64,20.64,0,0,1,4-28.33L283.1,12c8.71-6.73,15.9-12.13,16-12a.17.17,0,0,0,.3,0c.09-.11,7.28,5.29,16,12Z"/><path class="cls-1" d="M489,437a18.05,18.05,0,0,1-18,18h-24.1a18.05,18.05,0,0,1-18-18V331.38a18.05,18.05,0,0,0-18-18H181.47a18.05,18.05,0,0,0-18,18V437a18.05,18.05,0,0,1-18,18h-24.1a18.05,18.05,0,0,1-18-18V162.52a18.05,18.05,0,0,1,18-18h24.1a18.05,18.05,0,0,1,18,18V262.69a18.05,18.05,0,0,0,18,18H410.92a18.05,18.05,0,0,0,18-18V162.52a18.05,18.05,0,0,1,18-18H471a18.05,18.05,0,0,1,18,18Z"/><text class="cls-2" transform="translate(523.35 426.34)">hostelforyou.com</text></g></g></svg>